<svg width="86" height="54" viewBox="0 0 86 54" fill="none" xmlns="http://www.w3.org/2000/svg">
<path d="M43.0379 27.0278C43.0379 27.0278 -0.46208 54.0278 1.03792 53.0278C2.53792 52.0278 48.8679 33.5278 48.8679 33.5278L43.0379 27.0278Z" fill="white"/>
<path d="M53.0379 20.8373L43.0379 27.0278L48.8679 33.5278L58.0903 26.3798L53.0379 20.8373Z" fill="white"/>
<path d="M69.5379 53.0278C68.5714 51.0797 63.2816 38.6425 60.2422 31.4679C65.0379 28.0278 58.3692 27.0406 58.1506 26.5227C58.111 26.4288 58.0903 26.3798 58.0903 26.3798L48.8679 33.5278C49.2391 32.2879 70.9094 55.7919 69.5379 53.0278Z" fill="white"/>
<path d="M85.0379 1.02776C83.5379 2.02776 53.0379 20.8373 53.0379 20.8373L58.0903 26.3798C58.0903 26.3798 86.5379 0.0277569 85.0379 1.02776Z" fill="white"/>
<path d="M30.0379 1.02776C29.3545 0.9707 43.0379 27.0278 43.0379 27.0278L53.0379 20.8373C44.5581 14.1086 30.7214 1.08482 30.0379 1.02776Z" fill="white"/>
<path d="M58.1506 26.5227C58.3692 27.0406 65.0379 28.0278 60.2422 31.4679C69.0576 29.8714 84.0931 27.3111 82.8155 27.3798C81.5379 27.4484 58.1506 26.5227 58.1506 26.5227Z" fill="white"/>
<path d="M43.0379 27.0278C43.0379 27.0278 -0.46208 54.0278 1.03792 53.0278C2.53792 52.0278 48.8679 33.5278 48.8679 33.5278M43.0379 27.0278C43.0379 27.0278 29.3545 0.9707 30.0379 1.02776C30.7214 1.08482 44.5581 14.1086 53.0379 20.8373M43.0379 27.0278L53.0379 20.8373M43.0379 27.0278L48.8679 33.5278M53.0379 20.8373C53.0379 20.8373 83.5379 2.02776 85.0379 1.02776C86.5379 0.0277569 58.0903 26.3798 58.0903 26.3798M53.0379 20.8373L58.0903 26.3798M58.0903 26.3798L48.8679 33.5278M58.0903 26.3798H54.0379L58.1506 26.5227M58.0903 26.3798C58.0903 26.3798 58.111 26.4288 58.1506 26.5227M48.8679 33.5278C49.2391 32.2879 70.9094 55.7919 69.5379 53.0278C68.5714 51.0797 63.2816 38.6425 60.2422 31.4679M48.8679 33.5278L60.2422 31.4679M58.1506 26.5227C58.3692 27.0406 65.0379 28.0278 60.2422 31.4679M58.1506 26.5227C58.1506 26.5227 81.5379 27.4484 82.8155 27.3798C84.0931 27.3111 69.0576 29.8714 60.2422 31.4679" stroke="white"/>
</svg>
